:SAMPLES-PER-SECOND 30
:FULLY-SPECIFIED
:DEGREES
470
root  1.20565 34.3477 12.8306 177.175 74.4211 171.706
RightUpLeg  -45.2264 0.320834 -8.53691
RightLeg  52.3631 0.2727 -0.0220199
RightFoot  -15.0538 0.399147 15.3636
RightToes  -5.8209e-011 0 -3.6325e-017
Spine  26.7374 -3.75434 -2.68267
Spine1  7.23598 -8.44384 14.6138
HEad  -29.4924 7.7955 -8.79525
LeftShoulder1  1.00434 -0.931301 -15.8681
LeftArm  -13.5363 22.964 -33.213
LeftForeArm  81.1414 -78.8767 -97.818
LeftHand  -1.32052 -1.64204 21.8368
RightShoulder  0.123121 -2.83656 11.9035
RightArm  -37.4333 -23.2703 35.4606
RightForeArm  1.28744 72.3483 40.7627
RightHand  -1.63953 4.66094 -19.0654
LeftUpLeg  -20.4303 11.9048 3.87058
LeftLeg  59.8954 4.46228 8.86993
LeftFoot  -30.8725 -2.55651 -15.8262
LeftToes  6.82088e-011 -2.45093e-011 5.71991e-013
471
root  0.745085 33.0818 12.712 -175.564 73.4349 179.744
RightUpLeg  -48.6924 -1.48216 -6.46568
RightLeg  58.1332 0.279529 0.022834
RightFoot  -15.2745 0.37366 13.8304
RightToes  -5.8209e-011 0 -3.6325e-017
Spine  28.3705 -4.18669 -1.93642
Spine1  7.50518 -9.06134 15.8197
HEad  -29.3723 7.85904 -8.1173
LeftShoulder1  0.982575 -0.615789 -17.1799
LeftArm  -26.1105 17.4496 -38.095
LeftForeArm  135.221 -69.8912 -150.51
LeftHand  -1.52772 -2.10331 23.6589
RightShoulder  0.143657 -2.73538 12.0576
RightArm  -40.5144 -20.7103 33.3555
RightForeArm  3.75502 73.206 43.7287
RightHand  -1.96423 5.26129 -21.4329
LeftUpLeg  -24.2456 12.4737 5.58244
LeftLeg  68.0428 4.13348 11.9332
LeftFoot  -34.4389 -3.40903 -17.5716
LeftToes  6.82088e-011 -2.45093e-011 5.71991e-013
472
root  0.406904 31.9775 12.6148 -173.423 72.7101 -176.17
RightUpLeg  -50.3613 -3.27557 -5.27663
RightLeg  63.252 0.299329 0.0838996
RightFoot  -15.4904 0.34643 12.4592
RightToes  -5.8209e-011 0 -3.6325e-017
Spine  29.4561 -3.71223 -2.97466
Spine1  8.88917 -9.6436 17.9819
HEad  -28.2096 7.5079 -7.8099
LeftShoulder1  0.946369 -0.339421 -17.9869
LeftArm  -32.6574 5.73357 -42.5106
LeftForeArm  132.371 -70.4464 -146.186
LeftHand  -1.81199 -2.68564 25.8307
RightShoulder  0.237476 -2.24522 12.0356
RightArm  -43.5962 -18.3881 33.0499
RightForeArm  5.02673 73.8308 46.1708
RightHand  -2.44643 6.25825 -24.3354
LeftUpLeg  -25.3254 12.322 7.0844
LeftLeg  74.0865 2.85744 12.3787
LeftFoot  -37.3717 -4.2792 -19.3412
LeftToes  6.82088e-011 -2.45093e-011 5.71991e-013
473
root  0.238765 31.1001 12.5876 -174.984 71.5713 -175.125
RightUpLeg  -50.355 -4.34586 -5.11138
RightLeg  67.6569 0.181734 -0.242927
RightFoot  -16.6224 0.423011 11.5745
RightToes  -5.8209e-011 0 -3.6325e-017
Spine  29.4435 -3.1186 -5.25761
Spine1  10.7877 -10.7619 20.5902
HEad  -25.5776 7.2765 -8.63299
LeftShoulder1  1.00065 -0.760208 -16.8122
LeftArm  -34.2891 -7.20964 -42.4246
LeftForeArm  57.563 -77.1924 -70.1792
LeftHand  -2.39733 -3.55126 30.7082
RightShoulder  0.271779 -2.07192 12.1225
RightArm  -49.1418 -16.5952 35.6684
RightForeArm  16.3325 76.5212 63.0737
RightHand  -2.78367 6.97295 -26.028
LeftUpLeg  -24.6903 11.0431 8.42495
LeftLeg  78.3719 1.52111 10.4705
LeftFoot  -39.3409 -4.78703 -19.9897
LeftToes  6.82088e-011 -2.45093e-011 5.71991e-013
474
root  0.233802 30.6132 12.5938 -177.192 69.1334 -175.11
RightUpLeg  -49.0225 -4.92886 -5.52756
RightLeg  70.4504 -0.388332 -2.06884
RightFoot  -17.9954 0.575956 11.9626
RightToes  -5.8209e-011 0 -3.6325e-017
Spine  28.5749 -3.43469 -8.22654
Spine1  11.8563 -12.9434 23.2981
HEad  -22.5772 7.9279 -9.61672
LeftShoulder1  1.15757 -1.76047 -15.1226
LeftArm  -33.8707 -14.3777 -37.6821
LeftForeArm  -0.499917 -55.8984 -14.8729
LeftHand  -2.85838 -3.95755 34.8154
RightShoulder  0.211954 -2.42375 13.011
RightArm  -55.1453 -14.2932 38.9585
RightForeArm  51.3251 77.3745 104.703
RightHand  -2.81992 6.982 -26.3212
LeftUpLeg  -23.7846 9.1671 9.4852
LeftLeg  80.7317 0.78543 8.33529
LeftFoot  -40.356 -4.85766 -19.5596
LeftToes  6.82088e-011 -2.45093e-011 5.71991e-013
475
root  0.358765 30.737 12.5525 -178.716 65.7421 -175.33
RightUpLeg  -46.4418 -5.53782 -6.23777
RightLeg  70.5065 -1.33222 -5.00732
RightFoot  -17.9247 0.63439 13.1223
RightToes  -5.8209e-011 0 -3.6325e-017
Spine  27.4603 -4.28015 -11.5453
Spine1  11.4481 -15.3509 25.8893
HEad  -20.8594 8.76872 -9.31929
LeftShoulder1  1.26076 -2.1483 -15.5198
LeftArm  -33.2206 -13.6805 -32.8178
LeftForeArm  -7.85713 -45.9445 -11.7076
LeftHand  -3.02381 -3.75758 37.3743
RightShoulder  0.104842 -2.98296 14.0656
RightArm  -59.7593 -12.6077 40.0615
RightForeArm  81.7006 72.274 137.411
RightHand  -2.74395 6.64158 -26.3308
LeftUpLeg  -22.6765 7.34261 9.94366
LeftLeg  80.1005 0.710814 7.11598
LeftFoot  -40.5567 -4.65325 -18.6591
LeftToes  6.82088e-011 -2.45093e-011 5.71991e-013
476
root  0.587998 31.5058 12.4012 -179.915 62.2875 -175.85
RightUpLeg  -42.4275 -6.62822 -7.05475
RightLeg  67.4943 -2.39934 -7.08407
RightFoot  -16.4521 0.502636 13.6808
RightToes  -5.8209e-011 0 -3.6325e-017
Spine  25.8692 -4.57965 -14.0501
Spine1  10.2956 -16.3561 27.5698
HEad  -20.4917 8.5888 -8.43479
LeftShoulder1  1.16262 -1.34483 -17.3293
LeftArm  -35.0472 -9.03499 -32.0494
LeftForeArm  -3.24495 -54.9585 -17.0893
LeftHand  -3.15824 -3.66967 39.2907
RightShoulder  -0.0568497 -3.7584 13.8679
RightArm  -66.3401 -13.4653 38.4856
RightForeArm  93.1478 66.2294 150.168
RightHand  -2.55574 6.4225 -25.0184
LeftUpLeg  -20.5975 5.26165 9.68559
LeftLeg  76.004 1.04141 6.22019
LeftFoot  -39.4387 -4.19366 -17.5944
LeftToes  6.82088e-011 -2.45093e-011 5.71991e-013
477
root  0.906015 32.7887 12.1372 178.67 58.7919 -176.708
RightUpLeg  -36.6399 -8.67593 -7.99185
RightLeg  61.7152 -3.45531 -7.50563
RightFoot  -14.9068 0.340929 14.0659
RightToes  -5.8209e-011 0 -3.6325e-017
Spine  23.0305 -4.20322 -14.8956
Spine1  9.31802 -15.4602 27.3421
HEad  -19.3531 8.89989 -8.8959
LeftShoulder1  0.943383 -0.32389 -17.9999
LeftArm  -32.7529 -3.42821 -35.1425
LeftForeArm  16.6162 -71.8165 -37.8086
LeftHand  -2.9244 -3.51328 37.0853
RightShoulder  -0.314194 -5.10443 12.3047
RightArm  -76.7759 -16.2876 35.6804
RightForeArm  92.5593 60.0664 156.931
RightHand  -2.28812 5.93153 -23.4672
LeftUpLeg  -17.2238 2.57132 8.89272
LeftLeg  69.0277 1.52575 5.25857
LeftFoot  -36.2899 -3.45966 -16.5284
LeftToes  6.82088e-011 -2.45093e-011 5.71991e-013
478
root  1.27409 34.6028 11.808 177.008 54.7008 -177.702
RightUpLeg  -28.6902 -11.3726 -9.31127
RightLeg  52.7639 -5.25404 -7.71194
RightFoot  -11.0787 -0.126724 15.7254
RightToes  -5.8209e-011 0 -3.6325e-017
Spine  18.813 -3.78842 -15.0995
Spine1  8.68919 -13.7351 25.5575
HEad  -15.2989 13.0776 -10.2521
LeftShoulder1  0.729238 0.432987 -17.0172
LeftArm  -23.8214 1.66549 -38.9389
LeftForeArm  74.8628 -79.0737 -96.448
LeftHand  -2.29521 -2.966 31.39
RightShoulder  -0.588122 -6.83147 10.2162
RightArm  -86.7456 -17.4619 33.2381
RightForeArm  88.044 53.3952 161.762
RightHand  -2.3451 5.48622 -24.9101
LeftUpLeg  -12.5379 0.105611 8.02326
LeftLeg  59.2895 1.90027 4.05221
LeftFoot  -30.4414 -2.4539 -15.5801
LeftToes  6.82088e-011 -2.45093e-011 5.71991e-013
479
root  1.63361 37.0364 11.4283 175.77 49.9325 -178.261
RightUpLeg  -18.9414 -13.5541 -10.866
RightLeg  39.6818 -9.03341 -8.1907
RightFoot  0.593677 -1.84506 17.6095
RightToes  -5.8209e-011 0 -3.6325e-017
Spine  13.5237 -3.5811 -15.9898
Spine1  8.40483 -12.1597 23.6436
HEad  -8.67863 21.0387 -9.47467
LeftShoulder1  0.521629 1.1563 -15.3637
LeftArm  -11.8167 5.47778 -42.0682
LeftForeArm  113.468 -74.9992 -133.951
LeftHand  -1.81836 -2.76621 25.8164
RightShoulder  -0.737708 -8.2796 7.74374
RightArm  -91.0057 -13.3098 31.6113
RightForeArm  90.8037 48.945 164.285
RightHand  -2.56987 5.70719 -26.7098
LeftUpLeg  -6.7694 -1.24505 7.70487
LeftLeg  46.1976 1.22473 1.87814
LeftFoot  -19.694 -0.981446 -14.9121
LeftToes  6.82088e-011 -2.45093e-011 5.71991e-013
480
root  1.92119 39.73 10.9691 175.684 44.7447 -178.164
RightUpLeg  -9.43745 -14.3079 -12.2815
RightLeg  23.646 -14.2325 -6.73644
RightFoot  20.6628 -4.93643 17.6452
RightToes  -5.8209e-011 0 -3.6325e-017
Spine  7.00639 -3.48308 -16.8138
Spine1  8.86131 -10.4898 21.546
HEad  -1.64415 27.7909 -5.19432
LeftShoulder1  0.49291 1.12069 -13.7474
LeftArm  0.42196 7.89913 -44.2568
LeftForeArm  125.87 -70.8081 -146.086
LeftHand  -1.61243 -2.94944 22.4733
RightShoulder  -0.744846 -9.26966 4.92959
RightArm  -90.6131 -3.7904 29.32
RightForeArm  96.5507 48.8544 164.49
RightHand  -2.26285 5.17449 -24.7921
LeftUpLeg  -1.63903 -1.97316 8.04398
LeftLeg  31.3234 -1.53766 -0.644632
LeftFoot  -1.57507 1.28341 -14.7226
LeftToes  6.82088e-011 -2.45093e-011 5.71991e-013
481
root  2.06166 42.0362 10.4459 176.978 39.5332 -177.694
RightUpLeg  -3.08648 -13.205 -13.6005
RightLeg  9.74661 -18.809 -2.82132
RightFoot  39.4101 -8.1164 17.589
RightToes  -5.8209e-011 0 -3.6325e-017
Spine  -0.785725 -3.35495 -15.0295
Spine1  10.6139 -8.04231 16.9618
HEad  3.28993 29.6583 -0.302299
LeftShoulder1  0.779309 -0.537518 -12.2151
LeftArm  11.062 8.86643 -44.0295
LeftForeArm  130.822 -67.8928 -151.308
LeftHand  -1.42855 -2.84524 20.2014
RightShoulder  -0.69176 -10.3668 1.79361
RightArm  -87.6229 8.79339 25.0059
RightForeArm  95.7445 54.2576 161.716
RightHand  -2.26935 5.14729 -24.7334
LeftUpLeg  0.455396 -2.08442 8.54993
LeftLeg  18.706 -4.89421 -1.35701
LeftFoot  20.2403 4.25566 -15.3134
LeftToes  6.82088e-011 -2.45093e-011 5.71991e-013
482
root  1.94324 43.8161 9.9503 178.807 35.0877 -176.892
RightUpLeg  -1.19261 -12.8369 -14.6005
RightLeg  3.80536 -20.0179 0.147851
RightFoot  46.7937 -10.3357 19.1617
RightToes  -5.8209e-011 0 -3.6325e-017
Spine  -7.54122 -2.55134 -8.74795
Spine1  12.4292 -4.28774 8.2332
HEad  5.52483 28.1728 2.27579
LeftShoulder1  1.1577 -3.07873 -10.3302
LeftArm  18.0045 9.10221 -41.478
LeftForeArm  133.217 -66.4333 -153.423
LeftHand  -1.17035 -2.46121 17.4297
RightShoulder  -0.467913 -11.7827 -3.16462
RightArm  -81.3027 21.0084 19.7218
RightForeArm  79.5314 68.7361 141.529
RightHand  -3.23538 7.40796 -29.2186
LeftUpLeg  0.139702 0.834265 9.0664
LeftLeg  10.6509 -4.82733 0.133274
LeftFoot  35.646 6.67957 -15.905
LeftToes  6.82088e-011 -2.45093e-011 5.71991e-013
483
root  1.60954 45.2593 9.6375 179.07 31.6236 -176.256
RightUpLeg  -1.32064 -13.9766 -15.7614
RightLeg  5.10254 -17.3405 0.378584
RightFoot  45.1451 -10.241 19.5589
RightToes  -5.8209e-011 0 -3.6325e-017
Spine  -8.73546 -0.7466 -1.00668
Spine1  11.1251 0.0868217 -1.92597
HEad  6.34481 26.0575 3.109
LeftShoulder1  1.35094 -5.13879 -8.1112
LeftArm  20.398 10.4036 -39.0211
LeftForeArm  132.955 -65.9856 -153.913
LeftHand  -0.961019 -2.01767 15.2239
RightShoulder  0.0850552 -12.6589 -10.7525
RightArm  -75.5766 28.245 14.024
RightForeArm  -3.41332 73.7975 52.0197
RightHand  -2.99393 6.55367 -28.1338
LeftUpLeg  0.0747042 4.40134 9.51495
LeftLeg  7.32319 0.929932 1.06685
LeftFoot  39.2086 6.55635 -14.3495
LeftToes  6.82088e-011 -2.45093e-011 5.71991e-013
484
root  1.24177 46.3003 9.55257 177.449 27.5839 -175.97
RightUpLeg  -0.9009 -14.3357 -17.0821
RightLeg  8.29445 -13.4134 -1.15456
RightFoot  42.1487 -8.43534 17.2725
RightToes  -5.8209e-011 0 -3.6325e-017
Spine  -4.41122 0.601039 2.56514
Spine1  7.50825 2.67068 -7.8567
HEad  5.40316 23.7701 3.21464
LeftShoulder1  1.38603 -6.13796 -6.69937
LeftArm  19.6036 13.1512 -37.6731
LeftForeArm  129.08 -65.9458 -153.553
LeftHand  -0.851321 -1.09598 15.394
RightShoulder  0.626146 -12.4828 -17.4951
RightArm  -69.3701 29.3695 7.76437
RightForeArm  -33.6683 51.4006 14.7547
RightHand  -1.04901 2.09065 -16.5005
LeftUpLeg  0.770173 5.83682 9.86917
LeftLeg  7.09926 3.61064 0.661654
LeftFoot  35.6459 5.62475 -13.4421
LeftToes  6.82088e-011 -2.45093e-011 5.71991e-013
